<svg width="16" height="16" fill="none" xmlns="http://www.w3.org/2000/svg"><path fill-rule="evenodd" clip-rule="evenodd" d="M8.337.166L8.273.158C8.208.15 8.142.141 8.075.141c-.014 0-.027.002-.04.004a.35.35 0 01-.1 0A.98.98 0 007.86.141C3.527.141 0 3.668 0 8.001c0 4.334 3.526 7.86 7.86 7.86.025 0 .05-.002.074-.004l.063-.003.036.003c.014.002.027.004.041.004.07 0 .14-.01.209-.018l.031-.004.022-.003c4.112-.248 7.383-3.662 7.383-7.835S12.45.414 8.337.166zm-2.83 1.378c-.795.919-1.442 2.238-1.797 3.797-1.104-.12-1.77-.26-2.04-.324a6.905 6.905 0 013.838-3.473zM1.3 5.932a6.833 6.833 0 00.15 4.544c.314-.076 1.015-.222 2.153-.345A12.105 12.105 0 013.41 8c0-.567.04-1.133.12-1.694-1.327-.147-2.044-.324-2.231-.375zm.577 5.451c.356-.075.993-.19 1.936-.289.37 1.372.974 2.532 1.696 3.365a6.91 6.91 0 01-3.633-3.076zm2.832-.373c.508 1.97 1.748 3.43 2.59 3.782v-3.885c-.842.01-1.86.05-2.59.103zm2.59-1.081c-.842.01-1.988.054-2.77.114-.107-.648-.138-1.334-.138-2.042 0-.55.011-1.086.078-1.603.793.063 1.988.108 2.83.12v3.41zM4.602 5.428c.753.057 1.854.1 2.696.11V1.21c-.842.379-2.225 2.03-2.696 4.218zm9.423-.465c-.153.047-.775.22-2.005.366-.278-1.476-.779-2.734-1.432-3.643a6.915 6.915 0 013.438 3.277zm-2.913.464c-.461-2.216-1.849-3.882-2.69-4.231v4.343c.841-.01 1.95-.054 2.69-.112zm-2.69 1.09a46.403 46.403 0 002.805-.122c.065.518.081 1.055.081 1.606 0 .709-.025 1.396-.13 2.045a46.06 46.06 0 00-2.757-.117V6.517zm0 4.39v3.9c.841-.326 2.088-1.8 2.588-3.795a44.378 44.378 0 00-2.589-.105zm2.165 3.41c.59-.82 1.059-1.918 1.348-3.208.968.111 1.577.24 1.885.318a6.919 6.919 0 01-3.232 2.89zm1.58-8.02a14.801 14.801 0 01-.058 3.845c1.195.14 1.874.31 2.145.388a6.83 6.83 0 00.488-2.529c0-.883-.172-1.758-.505-2.576l.158.447c-.044.015-.714.243-2.227.425z" fill="#fff"/></svg>